<mxfile host="app.diagrams.net" modified="2024-03-18T22:09:06.996Z" agent="Mozilla/5.0 (Windows NT 10.0; Win64; x64; rv:123.0) Gecko/20100101 Firefox/123.0" etag="QQPBtosvv2fsC6tuviKh" version="24.0.7" type="github">
  <diagram id="prtHgNgQTEPvFCAcTncT" name="Page-1">
    <mxGraphModel dx="1170" dy="839" grid="1" gridSize="10" guides="1" tooltips="1" connect="1" arrows="1" fold="1" page="1" pageScale="1" pageWidth="827" pageHeight="1169" math="0" shadow="0">
      <root>
        <mxCell id="0" />
        <mxCell id="1" parent="0" />
        <mxCell id="dNxyNK7c78bLwvsdeMH5-19" value="SABER Workflow" style="swimlane;html=1;childLayout=stackLayout;resizeParent=1;resizeParentMax=0;horizontal=0;startSize=20;horizontalStack=0;" parent="1" vertex="1">
          <mxGeometry x="60" y="270" width="840" height="480" as="geometry" />
        </mxCell>
        <mxCell id="dNxyNK7c78bLwvsdeMH5-20" value="&lt;div&gt;Weather Outage&lt;/div&gt;&lt;div&gt;&amp;nbsp;Modeling&lt;/div&gt;" style="swimlane;html=1;startSize=30;horizontal=0;" parent="dNxyNK7c78bLwvsdeMH5-19" vertex="1">
          <mxGeometry x="20" width="820" height="120" as="geometry" />
        </mxCell>
        <mxCell id="kzs3K-7DPgvp49Ke8Xy6-6" style="edgeStyle=orthogonalEdgeStyle;rounded=0;orthogonalLoop=1;jettySize=auto;html=1;entryX=0;entryY=0.5;entryDx=0;entryDy=0;" edge="1" parent="dNxyNK7c78bLwvsdeMH5-20" source="dNxyNK7c78bLwvsdeMH5-24" target="dNxyNK7c78bLwvsdeMH5-30">
          <mxGeometry relative="1" as="geometry" />
        </mxCell>
        <mxCell id="dNxyNK7c78bLwvsdeMH5-24" value="Compute likelihood of extreme weather event" style="rounded=0;whiteSpace=wrap;html=1;fontFamily=Helvetica;fontSize=12;fontColor=#000000;align=center;" parent="dNxyNK7c78bLwvsdeMH5-20" vertex="1">
          <mxGeometry x="220" y="30" width="80" height="60" as="geometry" />
        </mxCell>
        <mxCell id="dNxyNK7c78bLwvsdeMH5-30" value="Compute likelihood of outages due to extreme weather (Baseline) " style="rounded=0;whiteSpace=wrap;html=1;fontFamily=Helvetica;fontSize=12;fontColor=#000000;align=center;" parent="dNxyNK7c78bLwvsdeMH5-20" vertex="1">
          <mxGeometry x="350" y="20" width="120" height="80" as="geometry" />
        </mxCell>
        <mxCell id="kzs3K-7DPgvp49Ke8Xy6-5" value="&lt;div&gt;Compute likelihood of outages&lt;/div&gt;&lt;div&gt;(Resilient)&lt;br&gt;&lt;/div&gt;" style="whiteSpace=wrap;html=1;aspect=fixed;" vertex="1" parent="dNxyNK7c78bLwvsdeMH5-20">
          <mxGeometry x="500" y="20" width="80" height="80" as="geometry" />
        </mxCell>
        <mxCell id="kzs3K-7DPgvp49Ke8Xy6-7" style="edgeStyle=orthogonalEdgeStyle;rounded=0;orthogonalLoop=1;jettySize=auto;html=1;entryX=-0.05;entryY=0.5;entryDx=0;entryDy=0;entryPerimeter=0;" edge="1" parent="dNxyNK7c78bLwvsdeMH5-20" source="dNxyNK7c78bLwvsdeMH5-30" target="kzs3K-7DPgvp49Ke8Xy6-5">
          <mxGeometry relative="1" as="geometry" />
        </mxCell>
        <mxCell id="dNxyNK7c78bLwvsdeMH5-21" value="&lt;div&gt;Economic Impact &lt;br&gt;&lt;/div&gt;&lt;div&gt;Modeling&lt;br&gt;&lt;/div&gt;" style="swimlane;html=1;startSize=30;horizontal=0;" parent="dNxyNK7c78bLwvsdeMH5-19" vertex="1">
          <mxGeometry x="20" y="120" width="820" height="120" as="geometry" />
        </mxCell>
        <mxCell id="kzs3K-7DPgvp49Ke8Xy6-33" value="&lt;div&gt;Compute direct and indirect economic impact&lt;/div&gt;&lt;div&gt;(Baseline)&lt;br&gt;&lt;/div&gt;" style="rounded=0;whiteSpace=wrap;html=1;" vertex="1" parent="dNxyNK7c78bLwvsdeMH5-21">
          <mxGeometry x="340" y="20" width="140" height="90" as="geometry" />
        </mxCell>
        <mxCell id="kzs3K-7DPgvp49Ke8Xy6-36" value="&lt;br&gt;&lt;div&gt;Compute direct and indirect economic impact&lt;/div&gt;&lt;div&gt;(Resilient)&lt;br&gt;&lt;/div&gt;&lt;div&gt;&lt;br/&gt;&lt;/div&gt;" style="rounded=0;whiteSpace=wrap;html=1;" vertex="1" parent="dNxyNK7c78bLwvsdeMH5-21">
          <mxGeometry x="580" y="20" width="140" height="90" as="geometry" />
        </mxCell>
        <mxCell id="kzs3K-7DPgvp49Ke8Xy6-35" style="edgeStyle=orthogonalEdgeStyle;rounded=0;orthogonalLoop=1;jettySize=auto;html=1;" edge="1" parent="dNxyNK7c78bLwvsdeMH5-21" source="kzs3K-7DPgvp49Ke8Xy6-33" target="kzs3K-7DPgvp49Ke8Xy6-36">
          <mxGeometry relative="1" as="geometry">
            <mxPoint x="540.0000000000002" y="65" as="targetPoint" />
          </mxGeometry>
        </mxCell>
        <mxCell id="kzs3K-7DPgvp49Ke8Xy6-30" style="edgeStyle=orthogonalEdgeStyle;rounded=0;orthogonalLoop=1;jettySize=auto;html=1;" edge="1" parent="dNxyNK7c78bLwvsdeMH5-19" source="kzs3K-7DPgvp49Ke8Xy6-28" target="dNxyNK7c78bLwvsdeMH5-24">
          <mxGeometry relative="1" as="geometry" />
        </mxCell>
        <mxCell id="dNxyNK7c78bLwvsdeMH5-22" value="&lt;div&gt;Resilience Upgrade &lt;br&gt;&lt;/div&gt;&lt;div&gt;Deployment&lt;br&gt;&lt;/div&gt;" style="swimlane;html=1;startSize=30;horizontal=0;" parent="dNxyNK7c78bLwvsdeMH5-19" vertex="1">
          <mxGeometry x="20" y="240" width="820" height="240" as="geometry" />
        </mxCell>
        <mxCell id="kzs3K-7DPgvp49Ke8Xy6-12" value="&lt;div&gt;High resolution&amp;nbsp;&lt;/div&gt;&lt;div&gt;grid topology&lt;/div&gt;" style="shape=parallelogram;perimeter=parallelogramPerimeter;whiteSpace=wrap;html=1;fixedSize=1;" vertex="1" parent="dNxyNK7c78bLwvsdeMH5-22">
          <mxGeometry x="130" y="35" width="120" height="40" as="geometry" />
        </mxCell>
        <mxCell id="kzs3K-7DPgvp49Ke8Xy6-18" value="&lt;div&gt;Resilience&amp;nbsp;&lt;/div&gt;&lt;div&gt;upgrade plan&lt;/div&gt;" style="shape=parallelogram;perimeter=parallelogramPerimeter;whiteSpace=wrap;html=1;fixedSize=1;" vertex="1" parent="dNxyNK7c78bLwvsdeMH5-22">
          <mxGeometry x="270" y="35" width="120" height="40" as="geometry" />
        </mxCell>
        <mxCell id="kzs3K-7DPgvp49Ke8Xy6-31" style="edgeStyle=orthogonalEdgeStyle;rounded=0;orthogonalLoop=1;jettySize=auto;html=1;" edge="1" parent="dNxyNK7c78bLwvsdeMH5-22" source="kzs3K-7DPgvp49Ke8Xy6-22" target="kzs3K-7DPgvp49Ke8Xy6-28">
          <mxGeometry relative="1" as="geometry" />
        </mxCell>
        <mxCell id="kzs3K-7DPgvp49Ke8Xy6-22" value="&lt;div&gt;Initiate&amp;nbsp;&lt;/div&gt;&lt;div&gt;Resilience&amp;nbsp;&lt;/div&gt;&lt;div&gt;Plan&lt;/div&gt;" style="strokeWidth=2;html=1;shape=mxgraph.flowchart.terminator;whiteSpace=wrap;" vertex="1" parent="dNxyNK7c78bLwvsdeMH5-22">
          <mxGeometry x="40" y="140" width="90" height="50" as="geometry" />
        </mxCell>
        <mxCell id="kzs3K-7DPgvp49Ke8Xy6-28" value="&lt;div align=&quot;left&quot;&gt;1. Identify vulnerable segment&amp;nbsp;&lt;/div&gt;&lt;div align=&quot;left&quot;&gt;2. Prepare resilience upgrade plan&lt;/div&gt;&lt;div align=&quot;left&quot;&gt;3. Provide consumer topology&lt;br&gt;&lt;/div&gt;" style="rounded=0;whiteSpace=wrap;html=1;align=left;" vertex="1" parent="dNxyNK7c78bLwvsdeMH5-22">
          <mxGeometry x="160" y="120" width="200" height="90" as="geometry" />
        </mxCell>
        <mxCell id="kzs3K-7DPgvp49Ke8Xy6-37" value="&lt;div&gt;Consumer&amp;nbsp;&lt;/div&gt;&lt;div&gt;topology&lt;/div&gt;" style="shape=parallelogram;perimeter=parallelogramPerimeter;whiteSpace=wrap;html=1;fixedSize=1;" vertex="1" parent="dNxyNK7c78bLwvsdeMH5-22">
          <mxGeometry x="420" y="80" width="120" height="40" as="geometry" />
        </mxCell>
        <mxCell id="kzs3K-7DPgvp49Ke8Xy6-32" style="edgeStyle=orthogonalEdgeStyle;rounded=0;orthogonalLoop=1;jettySize=auto;html=1;entryX=0.5;entryY=1;entryDx=0;entryDy=0;" edge="1" parent="dNxyNK7c78bLwvsdeMH5-19" source="kzs3K-7DPgvp49Ke8Xy6-28" target="kzs3K-7DPgvp49Ke8Xy6-5">
          <mxGeometry relative="1" as="geometry">
            <Array as="points">
              <mxPoint x="280" y="270" />
              <mxPoint x="560" y="270" />
            </Array>
          </mxGeometry>
        </mxCell>
        <mxCell id="kzs3K-7DPgvp49Ke8Xy6-34" style="edgeStyle=orthogonalEdgeStyle;rounded=0;orthogonalLoop=1;jettySize=auto;html=1;entryX=0.5;entryY=0;entryDx=0;entryDy=0;" edge="1" parent="dNxyNK7c78bLwvsdeMH5-19" source="dNxyNK7c78bLwvsdeMH5-30" target="kzs3K-7DPgvp49Ke8Xy6-33">
          <mxGeometry relative="1" as="geometry" />
        </mxCell>
        <mxCell id="kzs3K-7DPgvp49Ke8Xy6-38" style="edgeStyle=orthogonalEdgeStyle;rounded=0;orthogonalLoop=1;jettySize=auto;html=1;" edge="1" parent="dNxyNK7c78bLwvsdeMH5-19" source="kzs3K-7DPgvp49Ke8Xy6-28" target="kzs3K-7DPgvp49Ke8Xy6-33">
          <mxGeometry relative="1" as="geometry">
            <Array as="points">
              <mxPoint x="430" y="405" />
            </Array>
          </mxGeometry>
        </mxCell>
        <mxCell id="kzs3K-7DPgvp49Ke8Xy6-16" style="edgeStyle=orthogonalEdgeStyle;rounded=0;orthogonalLoop=1;jettySize=auto;html=1;entryX=0.5;entryY=0;entryDx=0;entryDy=0;" edge="1" parent="1" source="kzs3K-7DPgvp49Ke8Xy6-15" target="dNxyNK7c78bLwvsdeMH5-30">
          <mxGeometry relative="1" as="geometry" />
        </mxCell>
        <mxCell id="kzs3K-7DPgvp49Ke8Xy6-21" style="edgeStyle=orthogonalEdgeStyle;rounded=0;orthogonalLoop=1;jettySize=auto;html=1;entryX=0.5;entryY=0;entryDx=0;entryDy=0;" edge="1" parent="1" source="kzs3K-7DPgvp49Ke8Xy6-15" target="kzs3K-7DPgvp49Ke8Xy6-5">
          <mxGeometry relative="1" as="geometry" />
        </mxCell>
        <mxCell id="kzs3K-7DPgvp49Ke8Xy6-15" value="&lt;div&gt;Historic&amp;nbsp;&lt;/div&gt;&lt;div&gt;weather data&lt;/div&gt;" style="shape=parallelogram;perimeter=parallelogramPerimeter;whiteSpace=wrap;html=1;fixedSize=1;" vertex="1" parent="1">
          <mxGeometry x="430" y="180" width="120" height="60" as="geometry" />
        </mxCell>
      </root>
    </mxGraphModel>
  </diagram>
</mxfile>
